<?xml version="1.0" encoding="UTF-8"?>
<!DOCTYPE svg PUBLIC "-//W3C//DTD SVG 1.1//EN" "http://www.w3.org/Graphics/SVG/1.1/DTD/svg11.dtd">
<!-- Creator: CorelDRAW -->
<svg xmlns="http://www.w3.org/2000/svg" xml:space="preserve" width="92.9386mm" height="33.7756mm" version="1.1" style="shape-rendering:geometricPrecision; text-rendering:geometricPrecision; image-rendering:optimizeQuality; fill-rule:evenodd; clip-rule:evenodd"
viewBox="0 0 37363.02 13578.41"
 xmlns:xlink="http://www.w3.org/1999/xlink"
 xmlns:xodm="http://www.corel.com/coreldraw/odm/2003">
 <defs>
  <style type="text/css">
   <![CDATA[
    .fil2 {fill:#25326A;fill-rule:nonzero}
    .fil1 {fill:#E20613;fill-rule:nonzero}
    .fil0 {fill:#E20613;fill-rule:nonzero}
   ]]>
  </style>
 </defs>
 <g id="Layer_x0020_1">
  <metadata id="CorelCorpID_0Corel-Layer"/>
  <g id="_2261710037200">
   <path class="fil0" d="M37113.17 3451.73c0,479.81 -390.32,870.25 -870.25,870.25 -479.77,0 -870.09,-390.44 -870.09,-870.25 0,-479.77 390.32,-870.21 870.09,-870.21 479.93,0 870.25,390.44 870.25,870.21zm-870.25 -1119.98c-617.5,0 -1120.1,502.36 -1120.1,1119.98 0,617.5 502.6,1120.1 1120.1,1120.1 617.66,0 1120.1,-502.6 1120.1,-1120.1 0,-617.62 -502.44,-1119.98 -1120.1,-1119.98z"/>
   <path class="fil0" d="M36422.58 3282.32c-14.71,22.71 -36.02,39.04 -65.09,49.81 -32.48,11.9 -79.68,17.85 -140.26,17.85l-269.47 0 0 -281.21 304.09 0c70.07,0 120.69,13.31 150.48,39.68 28.95,25.69 42.81,57.45 42.81,97.61 0,27.62 -7.36,52.58 -22.55,76.26zm15.6 243.54c-3.1,-2.85 -6.35,-5.67 -9.77,-8.36 65.53,-20.02 117.59,-50.65 156.02,-91.06 56.28,-59.7 84.95,-133.91 84.95,-220.39 0,-66.25 -17.17,-127.8 -50.65,-182.96 -34.29,-56.44 -81.13,-96.32 -139.1,-118.72 -55.04,-21.27 -131.5,-31.76 -233.73,-31.76l-517.8 0 0 1158.13 219.66 0 0 -480.21 127.8 0c41.97,0 62.11,2.37 70.47,3.94 18.17,4.54 36.18,12.5 53.75,23.84 17.73,11.34 39,32.76 63.28,63.8 26.21,33.21 60.1,82.41 101.11,145.81l154.46 242.82 270.88 0 -225.93 -353.29c-38.88,-60.14 -80.97,-111.04 -125.39,-151.6z"/>
   <path class="fil1" d="M13512.6 6466.42c-163.94,-3543.15 -3088.02,-6389.84 -6634.19,-6464.86 -2777.91,-58.86 -5184.91,1551.39 -6289.86,3896.6 -439.53,933.04 234.14,2006.92 1265.47,2006.92 538.66,0 1040.42,-301.63 1267.2,-790.21 674.67,-1452.97 2199.8,-2430.72 3936.72,-2292.03 1943.68,155.02 3508.29,1738.05 3642.61,3683.29 160.81,2325.64 -1678.23,4262.2 -3969.49,4262.2 -1165.37,0 -2212.75,-501.6 -2940.28,-1300.09 1139.68,-921.83 1803.86,-2281.94 2069.19,-3179.24 122.98,-416.09 -367.04,-744.58 -698.63,-464.89 -2314.54,1953.21 -5161.35,1821.99 -5161.35,1821.99l6.51 17.89 -6.51 0c131.3,1019.72 489.7,1968.08 1021.41,2794.35l1.69 4.54 1.13 0c1207.78,1873.77 3311.59,3115.28 5706.85,3115.28 3856.44,0 6961.79,-3215.58 6781.53,-7111.74z"/>
   <path class="fil1" d="M22232.38 8338.3c0,-839.45 -124.1,-1519.75 -369.01,-2021.67 -243.22,-498.66 -559.09,-884.96 -938.75,-1148.2 -383.77,-265.94 -820,-443.06 -1296.67,-526.32 -493,-86.07 -992.62,-129.73 -1485.18,-129.73 -842.99,0 -1553.8,66.65 -2112.61,198.24 -508.43,120 -952.18,243.26 -1321.92,367.04l0 8391.13c231.72,41.41 445.6,69.47 637.36,83.54 235.82,17.29 451.71,26.09 641.74,26.09 178.54,0 388.59,-8.8 624.29,-26.09 191.76,-14.07 405.64,-42.13 637.64,-83.54l0 -6456.21 0 -98.45 81.41 -55.56c44.38,-30.23 116.42,-63.4 341.96,-100.71 153.57,-25.13 300.07,-37.87 435.67,-37.87 526.16,0 927.94,159 1193.87,472.41 261.96,308.75 389.27,787.67 389.27,1464.19l0 4812.2c231.76,41.41 445.76,69.47 637.52,83.54 235.86,17.29 451.71,26.09 641.74,26.09 178.42,0 388.59,-8.8 624.29,-26.09 191.32,-13.91 405.19,-42.13 637.36,-83.54l0 -5130.48z"/>
   <path class="fil1" d="M25901.36 4651.19c-186.94,-39.56 -378.82,-68.62 -572.39,-86.92 -247.76,-22.83 -479.93,-34.49 -689.54,-34.49 -221.39,0 -456.09,11.66 -697.9,34.49 -191.2,18.41 -386.18,47.92 -581.2,88.04l0 8811.76c222.52,34.05 432.13,60.87 624.74,79.84 234.58,22.83 448.85,34.49 636.92,34.49 188.18,0 402.5,-11.66 637.36,-34.49 193.45,-19.14 408.85,-46.23 642.02,-80.69l0 -8812.04z"/>
   <path class="fil1" d="M33300.1 8972.73l-26.21 -65.25 23.52 -66.37 1475.81 -4169.33c-108.34,-12.3 -242.22,-24.8 -400.65,-37.43 -295.12,-23.12 -632.37,-34.73 -1002.79,-34.73 -290.46,0 -572.27,11.62 -837.48,34.61 -199.96,17.57 -327.89,33.17 -409.46,45.79l-1107.76 4130.18 -38.88 144.81 34.61 98.86 1551.67 4426.02c80.73,14.15 209.33,32.6 414.16,55.44 257.81,28.66 552.65,43.1 876.04,43.1 334.56,0 638.2,-14.59 902.53,-43.26 136.89,-14.87 255.44,-29.07 354.58,-42.37l-1809.69 -4520.05z"/>
   <path class="fil1" d="M30907.53 9053.81l34.9 -99.86 -38.83 -142.96 -1125.09 -4130.86c-81.57,-12.78 -209.49,-28.38 -410.02,-45.95 -265.49,-23 -547.31,-34.61 -837.48,-34.61 -370.42,0 -704.98,11.62 -993.87,34.73 -154.58,12.5 -285.63,24.97 -392.29,37.31l1475.81 4169.45 23.56 66.53 -26.41 65.37 -1809.81 4503.73c102.27,14.91 226.78,31.48 375.28,50.09 272.85,34.17 598.65,51.62 968.38,51.62 288.73,0 560.05,-14.47 806.41,-42.98 194.3,-22.71 318.36,-41.13 397.64,-55.32l1551.83 -4426.3z"/>
   <path class="fil2" d="M15249.4 3291.32c-168.93,-95.44 -298.54,-229.75 -388.75,-403.02 -90.33,-173.03 -135.44,-375.12 -135.44,-606.04 0,-228.75 45.11,-429.72 135.44,-602.87 90.21,-173.19 219.82,-307.06 388.75,-401.38 168.89,-94.43 366.76,-141.83 593.54,-141.83 148.91,0 291.14,22.71 426.46,67.82 135.44,45.23 246.2,108.63 332.15,190.44l-154.17 352.61c-100.83,-75.62 -198.84,-130.66 -294.44,-165.23 -95.44,-34.61 -195.7,-51.94 -300.67,-51.94 -201.37,0 -355.67,64 -462.76,192.04 -107.06,127.92 -160.69,314.7 -160.69,560.33 0,247.76 53.63,436.11 160.69,565.2 107.1,129.05 261.39,193.57 462.76,193.57 104.97,0 205.23,-17.29 300.67,-51.9 95.6,-34.61 193.61,-89.77 294.44,-165.39l154.17 352.57c-85.95,82.01 -196.71,145.53 -332.15,190.64 -135.32,45.11 -277.55,67.66 -426.46,67.66 -226.78,0 -424.65,-47.68 -593.54,-143.28z"/>
   <path class="fil2" d="M19200.24 2852.16c105.93,-132.3 158.96,-322.1 158.96,-569.86 0,-247.6 -53.03,-436.51 -158.96,-566.73 -105.97,-130.05 -253.47,-195.26 -442.38,-195.26 -188.91,0 -336.37,65.21 -442.34,195.26 -105.93,130.21 -158.96,319.12 -158.96,566.73 0,249.77 53.03,440.25 158.96,571.43 105.97,131.18 253.43,196.71 442.34,196.71 188.91,0 336.41,-66.09 442.38,-198.28zm-1023.26 442.34c-164.83,-93.47 -291.58,-227.18 -380.79,-401.33 -89.37,-174.32 -134.03,-377.82 -134.03,-610.87 0,-233.01 44.66,-435.51 134.03,-607.57 89.21,-172.14 215.96,-305.05 380.79,-398.36 164.79,-93.31 358.52,-140.14 580.88,-140.14 222.4,0 415.69,46.84 579.35,140.14 163.66,93.31 289.61,226.22 377.82,398.36 88.08,172.06 132.18,374.56 132.18,607.57 0,233.05 -44.1,436.55 -132.18,610.87 -88.2,174.15 -214.16,307.87 -377.82,401.33 -163.66,93.31 -356.95,139.98 -579.35,139.98 -222.36,0 -416.09,-46.67 -580.88,-139.98z"/>
   <polygon class="fil2" points="20863.47,3406.3 20863.47,1164.65 21354.57,1164.65 21354.57,3006.37 22355.72,3006.37 22355.72,3406.3 "/>
   <path class="fil2" d="M23896.29 3291.32c-168.89,-95.44 -298.54,-229.75 -388.87,-403.02 -90.33,-173.03 -135.28,-375.12 -135.28,-606.04 0,-228.75 44.95,-429.72 135.28,-602.87 90.33,-173.19 219.98,-307.06 388.87,-401.38 168.77,-94.43 366.76,-141.83 593.54,-141.83 148.79,0 291.02,22.71 426.46,67.82 135.32,45.23 246.08,108.63 332.15,190.44l-154.29 352.61c-100.71,-75.62 -198.84,-130.66 -294.28,-165.23 -95.6,-34.61 -195.86,-51.94 -300.67,-51.94 -201.53,0 -355.83,64 -462.92,192.04 -107.06,127.92 -160.53,314.7 -160.53,560.33 0,247.76 53.47,436.11 160.53,565.2 107.1,129.05 261.39,193.57 462.92,193.57 104.81,0 205.07,-17.29 300.67,-51.9 95.44,-34.61 193.57,-89.77 294.28,-165.39l154.29 352.57c-86.07,82.01 -196.83,145.53 -332.15,190.64 -135.44,45.11 -277.67,67.66 -426.46,67.66 -226.78,0 -424.77,-47.68 -593.54,-143.28z"/>
   <polygon class="fil2" points="27829.84,1164.61 28311.46,1164.61 28311.46,3406.26 27829.84,3406.26 27829.84,2464.85 26790.82,2464.85 26790.82,3406.26 26309.05,3406.26 26309.05,1164.61 26790.82,1164.61 26790.82,2071.28 27829.84,2071.28 "/>
   <path class="fil2" d="M30022.25 2534.12l724.04 0 -361.94 -840.62 -362.1 840.62zm-77.99 -2064.4c60.54,-73.45 138.7,-110.19 234.01,-110.19 37.71,0 75.02,7.96 111.76,23.68 36.7,16.04 76.02,37.87 117.83,65.69 43.54,23.8 76.87,41.25 99.7,52.18 22.83,10.93 46.23,16.32 70.07,16.32 37.87,0 68.06,-13.35 90.9,-40.16 22.83,-26.77 36.18,-63.12 40.28,-108.79l190.76 0c0,144.97 -30.19,254.32 -90.9,327.77 -60.7,73.61 -138.7,110.35 -234.01,110.35 -37.71,0 -75.02,-7.96 -111.88,-23.84 -36.62,-15.88 -75.9,-37.71 -117.71,-65.53 -43.54,-23.8 -77.03,-41.25 -99.7,-52.18 -22.83,-10.93 -46.27,-16.32 -70.07,-16.32 -37.87,0 -68.1,13.35 -90.94,40.16 -22.96,26.77 -36.3,63.12 -40.24,108.79l-190.64 0c0,-145.09 30.07,-254.44 90.78,-327.93zm1176.71 2936.58l-213.99 -497.5 -1048.38 0 -214.16 497.5 -494.24 0 1029.49 -2241.65 396.67 0 1029.49 2241.65 -484.87 0z"/>
   <path class="fil2" d="M33893.88 2852.16c105.93,-132.3 158.84,-322.1 158.84,-569.86 0,-247.6 -52.91,-436.51 -158.84,-566.73 -106.09,-130.05 -253.59,-195.26 -442.5,-195.26 -188.75,0 -336.25,65.21 -442.18,195.26 -106.09,130.21 -159.16,319.12 -159.16,566.73 0,249.77 53.07,440.25 159.16,571.43 105.93,131.18 253.43,196.71 442.18,196.71 188.91,0 336.41,-66.09 442.5,-198.28zm-1023.42 442.34c-164.79,-93.47 -291.58,-227.18 -380.79,-401.33 -89.21,-174.32 -133.87,-377.82 -133.87,-610.87 0,-233.01 44.66,-435.51 133.87,-607.57 89.21,-172.14 216,-305.05 380.79,-398.36 164.83,-93.31 358.56,-140.14 580.92,-140.14 222.52,0 415.69,46.84 579.35,140.14 163.82,93.31 289.61,226.22 377.82,398.36 88.2,172.06 132.34,374.56 132.34,607.57 0,233.05 -44.14,436.55 -132.34,610.87 -88.2,174.15 -213.99,307.87 -377.82,401.33 -163.66,93.31 -356.83,139.98 -579.35,139.98 -222.36,0 -416.09,-46.67 -580.92,-139.98z"/>
  </g>
 </g>
</svg>
